<svg id="svg" version="1.1" width="400" height="309.09090909090907" viewBox="0 0 400 309.09090909090907" xmlns="http://www.w3.org/2000/svg" xmlns:xlink="http://www.w3.org/1999/xlink" ><g id="svgg"><path id="path0" d="M207.939 107.569 L 205.091 108.428 205.091 109.244 L 205.091 110.061 206.909 110.061 L 208.727 110.061 208.727 124.819 C 208.727 136.333,208.661 139.631,208.424 139.822 C 208.258 139.957,207.439 140.145,206.606 140.239 L 205.091 140.411 205.091 141.357 L 205.091 142.303 210.909 142.303 L 216.727 142.303 216.727 141.351 L 216.727 140.399 215.333 140.231 C 212.875 139.935,213.091 141.593,213.091 122.993 L 213.091 106.667 211.939 106.689 C 211.306 106.701,209.506 107.097,207.939 107.569 M263.370 108.945 C 261.186 111.129,263.343 114.674,266.268 113.708 C 269.295 112.709,268.528 108.121,265.333 108.121 C 264.361 108.121,264.073 108.242,263.370 108.945 M247.284 116.518 C 246.745 117.670,246.303 118.686,246.303 118.775 C 246.303 118.865,245.540 119.259,244.607 119.651 C 242.936 120.353,242.911 120.377,242.910 121.273 L 242.909 122.182 244.474 122.182 L 246.038 122.182 246.110 131.134 C 246.191 141.233,246.133 140.926,248.137 141.935 C 249.376 142.560,253.111 142.538,255.758 141.890 L 257.576 141.445 257.651 140.409 L 257.726 139.373 256.439 139.565 C 250.711 140.420,250.350 139.842,250.228 129.636 L 250.140 122.182 253.918 122.182 L 257.697 122.182 257.697 120.848 L 257.697 119.515 253.939 119.515 L 250.182 119.515 250.182 116.970 L 250.182 114.424 249.224 114.424 L 248.266 114.424 247.284 116.518 M226.124 118.911 C 222.575 119.801,220.606 121.640,220.606 124.065 C 220.606 125.429,220.882 125.576,223.442 125.576 L 225.697 125.576 225.697 123.544 L 225.697 121.512 226.774 121.241 C 231.048 120.165,233.202 121.542,233.409 125.482 L 233.514 127.491 232.818 127.657 C 222.727 130.057,219.394 132.250,219.394 136.490 C 219.394 142.315,225.531 144.396,231.828 140.706 C 233.608 139.662,233.573 139.657,233.838 141.030 L 234.061 142.182 237.636 142.249 L 241.212 142.316 241.212 141.370 C 241.212 140.377,240.791 140.121,239.159 140.121 C 237.859 140.121,237.818 139.864,237.818 131.729 C 237.818 121.888,237.499 120.597,234.734 119.238 C 233.275 118.521,228.415 118.337,226.124 118.911 M284.789 119.133 C 283.890 119.450,282.563 120.043,281.841 120.451 C 280.385 121.273,280.242 121.198,280.242 119.617 C 280.242 118.495,279.153 118.493,275.515 119.606 L 272.848 120.423 272.773 121.302 L 272.698 122.182 274.410 122.182 L 276.121 122.182 276.121 130.750 C 276.121 140.511,276.249 139.938,274.000 140.239 L 272.727 140.409 272.727 141.356 L 272.727 142.303 278.061 142.303 L 283.394 142.303 283.394 141.348 C 283.394 140.394,283.393 140.393,282.242 140.228 C 280.140 139.925,280.242 140.378,280.242 131.385 L 280.242 123.450 281.515 122.945 C 285.563 121.340,288.676 121.738,289.818 124.007 C 290.264 124.892,290.309 125.541,290.380 132.084 C 290.468 140.198,290.527 139.949,288.474 140.221 L 287.273 140.380 287.273 141.342 L 287.273 142.303 292.606 142.303 L 297.939 142.303 297.939 141.356 L 297.939 140.409 296.667 140.239 C 294.433 139.941,294.545 140.395,294.545 131.643 C 294.545 122.602,294.448 122.017,292.640 120.209 C 290.835 118.405,287.965 118.012,284.789 119.133 M262.000 119.673 L 259.394 120.509 259.394 121.345 L 259.394 122.182 261.091 122.182 L 262.788 122.182 262.788 130.851 C 262.788 140.710,262.962 139.953,260.627 140.263 L 259.394 140.426 259.394 141.365 L 259.394 142.303 264.970 142.303 L 270.545 142.303 270.545 141.356 L 270.545 140.409 269.273 140.239 C 267.001 139.935,267.152 140.732,267.152 129.053 L 267.152 118.788 265.879 118.812 C 265.156 118.826,263.479 119.198,262.000 119.673 M233.455 133.572 L 233.455 137.690 231.994 138.427 C 226.626 141.137,222.381 138.814,224.332 134.235 C 225.005 132.655,230.279 129.878,233.394 129.463 C 233.427 129.458,233.455 131.308,233.455 133.572 M221.515 157.264 L 218.667 158.134 218.667 159.067 L 218.667 160.000 220.485 160.000 L 222.303 160.000 222.303 164.338 L 222.303 168.676 221.273 168.438 C 212.063 166.309,204.476 173.533,205.770 183.199 C 206.866 191.395,214.467 195.031,221.128 190.546 L 222.182 189.836 222.256 190.918 L 222.330 192.000 225.953 192.000 L 229.576 192.000 229.576 191.045 C 229.576 190.091,229.575 190.090,228.424 189.925 C 226.246 189.611,226.424 191.147,226.424 172.690 L 226.424 156.364 225.394 156.379 C 224.827 156.387,223.082 156.785,221.515 157.264 M327.455 157.275 L 324.606 158.141 324.606 158.949 L 324.606 159.758 326.545 159.758 L 328.485 159.758 328.485 174.387 C 328.485 191.063,328.691 189.633,326.242 189.928 L 324.848 190.095 324.848 191.048 L 324.848 192.000 330.545 192.000 L 336.242 192.000 336.242 191.058 L 336.242 190.116 334.848 189.945 C 332.392 189.643,332.606 191.292,332.606 172.690 L 332.606 156.364 331.455 156.387 C 330.821 156.400,329.021 156.799,327.455 157.275 M237.153 158.068 C 236.415 158.364,235.638 159.703,235.637 160.679 C 235.634 163.599,239.562 164.706,241.041 162.201 C 242.513 159.709,239.922 156.954,237.153 158.068 M275.579 158.198 C 273.657 159.241,273.781 162.319,275.784 163.269 C 278.404 164.512,280.967 161.846,279.632 159.265 C 278.947 157.939,277.000 157.426,275.579 158.198 M288.459 166.416 L 287.394 168.712 285.758 169.386 C 284.150 170.049,284.123 170.076,284.122 170.970 L 284.121 171.879 285.686 171.879 L 287.250 171.879 287.322 180.799 C 287.387 188.839,287.436 189.784,287.822 190.371 C 288.888 191.998,291.185 192.492,295.040 191.923 C 298.654 191.390,298.909 191.267,298.909 190.058 L 298.909 189.074 297.636 189.264 C 291.931 190.117,291.570 189.538,291.441 179.333 L 291.347 171.879 295.128 171.879 L 298.909 171.879 298.909 170.545 L 298.909 169.212 295.152 169.212 L 291.394 169.212 291.394 166.667 L 291.394 164.121 290.459 164.121 L 289.523 164.121 288.459 166.416 M253.455 168.582 C 248.754 170.073,246.514 174.237,247.900 178.906 C 248.394 180.567,250.552 182.831,252.080 183.289 C 253.296 183.653,253.286 183.472,252.182 185.135 C 251.327 186.423,251.273 186.618,251.273 188.386 C 251.273 190.205,251.253 190.271,250.658 190.390 C 247.180 191.085,245.219 196.023,247.167 199.181 C 251.359 205.978,267.620 201.778,267.634 193.895 C 267.641 189.962,265.673 188.806,256.545 187.382 C 254.586 187.076,254.486 186.914,255.035 184.939 L 255.279 184.060 257.276 183.953 C 263.275 183.630,267.029 178.291,264.785 173.273 L 264.270 172.121 266.802 172.121 L 269.333 172.121 269.333 170.788 L 269.333 169.455 265.944 169.455 C 262.973 169.455,262.333 169.380,260.750 168.848 C 258.698 168.160,255.191 168.032,253.455 168.582 M308.164 168.502 C 304.688 169.186,302.303 171.275,302.303 173.636 C 302.303 175.124,302.550 175.273,305.018 175.273 L 307.152 175.273 307.152 173.327 C 307.152 171.004,307.273 170.908,310.424 170.740 C 313.765 170.563,314.836 171.602,315.087 175.262 L 315.218 177.175 314.155 177.447 C 303.649 180.134,301.091 181.808,301.091 186.000 C 301.091 192.383,308.032 194.370,314.426 189.817 C 315.204 189.263,315.205 189.264,315.529 191.091 L 315.690 192.000 319.178 192.000 L 322.667 192.000 322.667 191.059 C 322.667 190.060,322.365 189.839,320.970 189.814 C 319.506 189.787,319.515 189.838,319.513 182.034 C 319.511 171.261,319.088 169.831,315.549 168.630 C 314.299 168.206,310.044 168.132,308.164 168.502 M235.394 169.318 L 232.848 170.126 232.773 171.002 L 232.698 171.879 234.410 171.879 L 236.121 171.879 236.121 180.447 C 236.121 190.208,236.249 189.635,234.000 189.936 L 232.727 190.106 232.727 191.053 L 232.727 192.000 238.182 192.000 L 243.636 192.000 243.636 191.053 L 243.636 190.106 242.364 189.936 C 240.091 189.632,240.242 190.429,240.242 178.750 L 240.242 168.485 239.091 168.498 C 238.458 168.504,236.794 168.874,235.394 169.318 M273.939 169.321 L 271.394 170.117 271.319 170.998 L 271.243 171.879 272.955 171.879 L 274.667 171.879 274.667 180.447 C 274.667 190.208,274.795 189.635,272.545 189.936 L 271.273 190.106 271.273 191.053 L 271.273 192.000 276.848 192.000 L 282.424 192.000 282.424 191.058 L 282.424 190.116 281.030 189.945 C 278.621 189.649,278.788 190.482,278.788 178.750 L 278.788 168.485 277.636 168.505 C 277.003 168.516,275.339 168.883,273.939 169.321 M221.030 170.962 L 222.303 171.229 222.303 179.415 L 222.303 187.601 220.909 188.261 C 215.043 191.038,210.303 187.455,210.303 180.242 C 210.303 172.947,214.243 169.538,221.030 170.962 M258.844 171.105 C 261.757 173.179,261.566 179.550,258.540 181.264 C 254.585 183.504,250.738 179.097,252.146 173.939 C 252.987 170.864,256.448 169.399,258.844 171.105 M315.152 183.264 L 315.152 187.376 313.394 188.220 C 310.120 189.792,308.106 189.841,306.648 188.382 C 304.714 186.448,305.443 183.324,308.207 181.705 C 308.945 181.273,314.581 179.185,315.091 179.155 C 315.124 179.153,315.152 181.002,315.152 183.264 M257.832 191.274 C 263.244 192.267,264.463 193.240,263.732 195.987 C 262.102 202.111,249.121 200.639,250.570 194.494 C 251.306 191.371,253.370 190.456,257.832 191.274 " stroke="none" fill="#fcfcfc" fill-rule="evenodd"></path><path id="path1" d="M101.818 172.144 C 97.352 176.417,93.661 180.015,93.616 180.139 C 93.568 180.274,96.871 180.364,101.919 180.364 L 110.303 180.364 110.303 172.364 C 110.303 167.964,110.221 164.366,110.121 164.369 C 110.021 164.372,106.285 167.871,101.818 172.144 " stroke="none" fill="#3cbc94" fill-rule="evenodd"></path><path id="path2" d="M101.758 106.599 L 93.576 106.673 93.576 131.276 L 93.576 155.879 101.939 155.879 L 110.303 155.879 110.303 140.018 L 110.303 124.156 122.727 124.074 C 136.793 123.980,139.437 124.100,143.030 124.997 C 155.919 128.211,163.671 138.722,164.288 153.818 C 164.922 169.354,157.958 181.118,145.608 185.371 C 140.593 187.098,142.556 186.998,111.939 187.088 L 84.364 187.169 84.364 147.069 L 84.364 106.970 83.618 106.821 C 83.208 106.739,79.390 106.743,75.133 106.829 L 67.394 106.987 67.394 154.833 L 67.394 202.679 103.939 202.608 L 140.485 202.538 143.157 202.003 C 163.903 197.851,179.273 181.867,182.179 161.423 C 185.827 135.757,168.884 112.169,143.157 107.096 C 140.349 106.542,126.534 106.376,101.758 106.599 " stroke="none" fill="#146c74" fill-rule="evenodd"></path><path id="path3" d="" stroke="none" fill="#c4100b8" fill-rule="evenodd"></path><path id="path4" d="" stroke="none" fill="#4c90bc" fill-rule="evenodd"></path></g></svg>