<svg id="svg" version="1.1" width="400" height="309.09090909090907" viewBox="0 0 400 309.09090909090907" xmlns="http://www.w3.org/2000/svg" xmlns:xlink="http://www.w3.org/1999/xlink" ><g id="svgg"><path id="path0" d="M207.939 107.569 L 205.091 108.428 205.091 109.244 L 205.091 110.061 206.909 110.061 L 208.727 110.061 208.727 124.819 C 208.727 136.333,208.661 139.631,208.424 139.822 C 208.258 139.957,207.439 140.145,206.606 140.239 L 205.091 140.411 205.091 141.357 L 205.091 142.303 210.909 142.303 L 216.727 142.303 216.727 141.351 L 216.727 140.399 215.333 140.231 C 212.875 139.935,213.091 141.593,213.091 122.993 L 213.091 106.667 211.939 106.689 C 211.306 106.701,209.506 107.097,207.939 107.569 M263.370 108.945 C 261.186 111.129,263.343 114.674,266.268 113.708 C 269.295 112.709,268.528 108.121,265.333 108.121 C 264.361 108.121,264.073 108.242,263.370 108.945 M247.284 116.518 C 246.745 117.670,246.303 118.686,246.303 118.775 C 246.303 118.865,245.540 119.259,244.607 119.651 C 242.936 120.353,242.911 120.377,242.910 121.273 L 242.909 122.182 244.474 122.182 L 246.038 122.182 246.110 131.134 C 246.191 141.233,246.133 140.926,248.137 141.935 C 249.376 142.560,253.111 142.538,255.758 141.890 L 257.576 141.445 257.651 140.409 L 257.726 139.373 256.439 139.565 C 250.711 140.420,250.350 139.842,250.228 129.636 L 250.140 122.182 253.918 122.182 L 257.697 122.182 257.697 120.848 L 257.697 119.515 253.939 119.515 L 250.182 119.515 250.182 116.970 L 250.182 114.424 249.224 114.424 L 248.266 114.424 247.284 116.518 M226.124 118.911 C 222.575 119.801,220.606 121.640,220.606 124.065 C 220.606 125.429,220.882 125.576,223.442 125.576 L 225.697 125.576 225.697 123.544 L 225.697 121.512 226.774 121.241 C 231.048 120.165,233.202 121.542,233.409 125.482 L 233.514 127.491 232.818 127.657 C 222.727 130.057,219.394 132.250,219.394 136.490 C 219.394 142.315,225.531 144.396,231.828 140.706 C 233.608 139.662,233.573 139.657,233.838 141.030 L 234.061 142.182 237.636 142.249 L 241.212 142.316 241.212 141.370 C 241.212 140.377,240.791 140.121,239.159 140.121 C 237.859 140.121,237.818 139.864,237.818 131.729 C 237.818 121.888,237.499 120.597,234.734 119.238 C 233.275 118.521,228.415 118.337,226.124 118.911 M284.789 119.133 C 283.890 119.450,282.563 120.043,281.841 120.451 C 280.385 121.273,280.242 121.198,280.242 119.617 C 280.242 118.495,279.153 118.493,275.515 119.606 L 272.848 120.423 272.773 121.302 L 272.698 122.182 274.410 122.182 L 276.121 122.182 276.121 130.750 C 276.121 140.511,276.249 139.938,274.000 140.239 L 272.727 140.409 272.727 141.356 L 272.727 142.303 278.061 142.303 L 283.394 142.303 283.394 141.348 C 283.394 140.394,283.393 140.393,282.242 140.228 C 280.140 139.925,280.242 140.378,280.242 131.385 L 280.242 123.450 281.515 122.945 C 285.563 121.340,288.676 121.738,289.818 124.007 C 290.264 124.892,290.309 125.541,290.380 132.084 C 290.468 140.198,290.527 139.949,288.474 140.221 L 287.273 140.380 287.273 141.342 L 287.273 142.303 292.606 142.303 L 297.939 142.303 297.939 141.356 L 297.939 140.409 296.667 140.239 C 294.433 139.941,294.545 140.395,294.545 131.643 C 294.545 122.602,294.448 122.017,292.640 120.209 C 290.835 118.405,287.965 118.012,284.789 119.133 M262.000 119.673 L 259.394 120.509 259.394 121.345 L 259.394 122.182 261.091 122.182 L 262.788 122.182 262.788 130.851 C 262.788 140.710,262.962 139.953,260.627 140.263 L 259.394 140.426 259.394 141.365 L 259.394 142.303 264.970 142.303 L 270.545 142.303 270.545 141.356 L 270.545 140.409 269.273 140.239 C 267.001 139.935,267.152 140.732,267.152 129.053 L 267.152 118.788 265.879 118.812 C 265.156 118.826,263.479 119.198,262.000 119.673 M233.455 133.572 L 233.455 137.690 231.994 138.427 C 226.626 141.137,222.381 138.814,224.332 134.235 C 225.005 132.655,230.279 129.878,233.394 129.463 C 233.427 129.458,233.455 131.308,233.455 133.572 M221.515 157.264 L 218.667 158.134 218.667 159.067 L 218.667 160.000 220.485 160.000 L 222.303 160.000 222.303 164.338 L 222.303 168.676 221.273 168.438 C 212.063 166.309,204.476 173.533,205.770 183.199 C 206.866 191.395,214.467 195.031,221.128 190.546 L 222.182 189.836 222.256 190.918 L 222.330 192.000 225.953 192.000 L 229.576 192.000 229.576 191.045 C 229.576 190.091,229.575 190.090,228.424 189.925 C 226.246 189.611,226.424 191.147,226.424 172.690 L 226.424 156.364 225.394 156.379 C 224.827 156.387,223.082 156.785,221.515 157.264 M327.455 157.275 L 324.606 158.141 324.606 158.949 L 324.606 159.758 326.545 159.758 L 328.485 159.758 328.485 174.387 C 328.485 191.063,328.691 189.633,326.242 189.928 L 324.848 190.095 324.848 191.048 L 324.848 192.000 330.545 192.000 L 336.242 192.000 336.242 191.058 L 336.242 190.116 334.848 189.945 C 332.392 189.643,332.606 191.292,332.606 172.690 L 332.606 156.364 331.455 156.387 C 330.821 156.400,329.021 156.799,327.455 157.275 M237.153 158.068 C 236.415 158.364,235.638 159.703,235.637 160.679 C 235.634 163.599,239.562 164.706,241.041 162.201 C 242.513 159.709,239.922 156.954,237.153 158.068 M275.579 158.198 C 273.657 159.241,273.781 162.319,275.784 163.269 C 278.404 164.512,280.967 161.846,279.632 159.265 C 278.947 157.939,277.000 157.426,275.579 158.198 M288.459 166.416 L 287.394 168.712 285.758 169.386 C 284.150 170.049,284.123 170.076,284.122 170.970 L 284.121 171.879 285.686 171.879 L 287.250 171.879 287.322 180.799 C 287.400 190.503,287.395 190.464,288.819 191.397 C 290.269 192.347,293.877 192.370,297.576 191.452 C 298.776 191.154,298.789 191.142,298.863 190.111 L 298.938 189.070 297.651 189.262 C 291.929 190.116,291.570 189.543,291.441 179.333 L 291.347 171.879 295.128 171.879 L 298.909 171.879 298.909 170.545 L 298.909 169.212 295.152 169.212 L 291.394 169.212 291.394 166.667 L 291.394 164.121 290.459 164.121 L 289.523 164.121 288.459 166.416 M253.455 168.582 C 248.754 170.073,246.514 174.237,247.900 178.906 C 248.394 180.567,250.552 182.831,252.080 183.289 C 253.296 183.653,253.286 183.472,252.182 185.135 C 251.327 186.423,251.273 186.618,251.273 188.386 C 251.273 190.205,251.253 190.271,250.658 190.390 C 247.180 191.085,245.219 196.023,247.167 199.181 C 251.359 205.978,267.620 201.778,267.634 193.895 C 267.641 189.962,265.673 188.806,256.545 187.382 C 254.586 187.076,254.486 186.914,255.035 184.939 L 255.279 184.060 257.276 183.953 C 263.275 183.630,267.029 178.291,264.785 173.273 L 264.270 172.121 266.802 172.121 L 269.333 172.121 269.333 170.788 L 269.333 169.455 265.944 169.455 C 262.973 169.455,262.333 169.380,260.750 168.848 C 258.698 168.160,255.191 168.032,253.455 168.582 M308.164 168.502 C 304.688 169.186,302.303 171.275,302.303 173.636 C 302.303 175.124,302.550 175.273,305.018 175.273 L 307.152 175.273 307.152 173.327 C 307.152 171.004,307.273 170.908,310.424 170.740 C 313.765 170.563,314.836 171.602,315.087 175.262 L 315.218 177.175 314.155 177.447 C 303.649 180.134,301.091 181.808,301.091 186.000 C 301.091 192.383,308.032 194.370,314.426 189.817 C 315.204 189.263,315.205 189.264,315.529 191.091 L 315.690 192.000 319.178 192.000 L 322.667 192.000 322.667 191.059 C 322.667 190.060,322.365 189.839,320.970 189.814 C 319.506 189.787,319.515 189.838,319.513 182.034 C 319.511 171.261,319.088 169.831,315.549 168.630 C 314.299 168.206,310.044 168.132,308.164 168.502 M235.394 169.318 L 232.848 170.126 232.773 171.002 L 232.698 171.879 234.410 171.879 L 236.121 171.879 236.121 180.447 C 236.121 190.208,236.249 189.635,234.000 189.936 L 232.727 190.106 232.727 191.053 L 232.727 192.000 238.182 192.000 L 243.636 192.000 243.636 191.053 L 243.636 190.106 242.364 189.936 C 240.091 189.632,240.242 190.429,240.242 178.750 L 240.242 168.485 239.091 168.498 C 238.458 168.504,236.794 168.874,235.394 169.318 M273.939 169.321 L 271.394 170.117 271.319 170.998 L 271.243 171.879 272.955 171.879 L 274.667 171.879 274.667 180.447 C 274.667 190.208,274.795 189.635,272.545 189.936 L 271.273 190.106 271.273 191.053 L 271.273 192.000 276.848 192.000 L 282.424 192.000 282.424 191.058 L 282.424 190.116 281.030 189.945 C 278.621 189.649,278.788 190.482,278.788 178.750 L 278.788 168.485 277.636 168.505 C 277.003 168.516,275.339 168.883,273.939 169.321 M221.030 170.962 L 222.303 171.229 222.303 179.415 L 222.303 187.601 220.909 188.261 C 215.043 191.038,210.303 187.455,210.303 180.242 C 210.303 172.947,214.243 169.538,221.030 170.962 M258.844 171.105 C 261.757 173.179,261.566 179.550,258.540 181.264 C 254.585 183.504,250.738 179.097,252.146 173.939 C 252.987 170.864,256.448 169.399,258.844 171.105 M315.152 183.264 L 315.152 187.376 313.394 188.220 C 310.120 189.792,308.106 189.841,306.648 188.382 C 304.714 186.448,305.443 183.324,308.207 181.705 C 308.945 181.273,314.581 179.185,315.091 179.155 C 315.124 179.153,315.152 181.002,315.152 183.264 M257.832 191.274 C 263.244 192.267,264.463 193.240,263.732 195.987 C 262.102 202.111,249.121 200.639,250.570 194.494 C 251.306 191.371,253.370 190.456,257.832 191.274 " stroke="none" fill="#6c6c74" fill-rule="evenodd"></path><path id="path1" d="M101.818 172.144 C 97.352 176.417,93.661 180.015,93.616 180.139 C 93.568 180.274,96.871 180.364,101.919 180.364 L 110.303 180.364 110.303 172.364 C 110.303 167.964,110.221 164.366,110.121 164.369 C 110.021 164.372,106.285 167.871,101.818 172.144 " stroke="none" fill="#3cbc94" fill-rule="evenodd"></path><path id="path2" d="M105.758 106.608 L 93.576 106.671 93.576 131.154 L 93.576 155.636 101.939 155.636 L 110.303 155.636 110.303 139.739 L 110.303 123.841 124.788 123.954 C 132.755 124.017,139.655 124.137,140.121 124.221 C 141.445 124.461,141.939 124.566,141.939 124.606 C 141.939 124.626,142.103 124.679,142.303 124.723 C 142.503 124.767,143.158 124.932,143.758 125.089 C 144.358 125.246,145.039 125.389,145.273 125.406 C 145.506 125.423,145.697 125.523,145.697 125.628 C 145.697 125.732,145.909 125.818,146.168 125.818 C 146.426 125.818,146.709 125.933,146.796 126.073 C 146.883 126.214,147.080 126.286,147.234 126.234 C 147.389 126.182,148.115 126.462,148.848 126.855 C 149.582 127.249,150.426 127.695,150.725 127.846 C 151.024 127.997,151.270 128.209,151.271 128.317 C 151.272 128.425,151.370 128.453,151.490 128.379 C 151.609 128.306,151.772 128.415,151.852 128.623 C 151.931 128.831,152.106 128.933,152.241 128.850 C 152.375 128.767,152.485 128.814,152.485 128.955 C 152.485 129.097,152.655 129.212,152.863 129.212 C 153.071 129.212,153.194 129.294,153.137 129.394 C 153.080 129.494,153.369 129.848,153.780 130.182 C 154.191 130.515,154.451 130.664,154.358 130.513 C 154.264 130.362,154.950 131.000,155.882 131.932 C 156.814 132.864,157.576 133.724,157.576 133.843 C 157.576 133.963,157.685 134.061,157.818 134.061 C 157.952 134.061,158.061 134.198,158.061 134.366 C 158.061 134.534,158.283 134.810,158.555 134.980 C 158.827 135.150,158.983 135.395,158.903 135.525 C 158.823 135.655,158.927 135.826,159.135 135.906 C 159.342 135.986,159.452 136.148,159.378 136.268 C 159.304 136.387,159.360 136.485,159.501 136.485 C 159.642 136.485,159.758 136.613,159.758 136.769 C 159.758 136.925,159.929 137.243,160.140 137.475 C 160.350 137.707,160.545 138.054,160.573 138.245 C 160.601 138.437,160.792 138.856,160.997 139.176 C 161.310 139.664,161.546 140.142,161.824 140.848 C 161.850 140.915,161.955 141.324,162.057 141.758 C 162.159 142.191,162.334 142.545,162.447 142.545 C 162.559 142.545,162.589 142.709,162.512 142.909 C 162.435 143.109,162.500 143.273,162.655 143.273 C 162.811 143.273,162.867 143.387,162.781 143.526 C 162.695 143.665,162.753 143.933,162.909 144.121 C 163.065 144.310,163.123 144.577,163.037 144.717 C 162.951 144.856,162.990 144.970,163.123 144.970 C 163.257 144.970,163.324 145.188,163.273 145.455 C 163.221 145.721,163.289 145.939,163.422 145.939 C 163.556 145.939,163.611 146.027,163.545 146.134 C 163.478 146.241,163.536 146.814,163.673 147.407 C 163.934 148.536,163.984 148.873,164.293 151.636 C 164.550 153.927,164.432 161.091,164.138 161.091 C 164.111 161.091,164.042 161.527,163.985 162.061 C 163.883 163.024,163.707 164.000,163.636 164.000 C 163.616 164.000,163.566 164.164,163.525 164.364 C 163.484 164.564,163.316 165.218,163.153 165.818 C 162.990 166.418,162.812 167.152,162.758 167.448 C 162.704 167.745,162.532 168.290,162.377 168.660 C 162.221 169.030,162.073 169.536,162.048 169.784 C 162.023 170.032,161.874 170.315,161.717 170.412 C 161.559 170.509,161.413 170.825,161.391 171.113 C 161.369 171.401,161.278 171.636,161.189 171.636 C 161.020 171.636,160.655 172.590,160.701 172.909 C 160.715 173.009,160.612 173.091,160.471 173.091 C 160.329 173.091,160.281 173.200,160.364 173.333 C 160.446 173.467,160.400 173.576,160.261 173.576 C 160.123 173.576,159.943 173.841,159.862 174.164 C 159.780 174.488,159.553 174.814,159.357 174.890 C 159.160 174.965,159.067 175.137,159.150 175.271 C 159.233 175.405,159.186 175.515,159.045 175.515 C 158.903 175.515,158.788 175.685,158.788 175.893 C 158.788 176.101,158.682 176.206,158.553 176.126 C 158.423 176.046,158.248 176.257,158.163 176.594 C 158.078 176.932,157.934 177.163,157.843 177.106 C 157.751 177.050,157.313 177.537,156.868 178.189 C 156.423 178.841,155.692 179.624,155.243 179.930 C 154.795 180.235,154.427 180.567,154.426 180.667 C 154.425 180.767,154.263 180.848,154.066 180.848 C 153.869 180.848,153.530 181.120,153.312 181.452 C 153.095 181.785,152.843 182.011,152.753 181.955 C 152.663 181.900,152.226 182.172,151.781 182.560 C 151.336 182.948,150.876 183.206,150.757 183.133 C 150.639 183.059,150.477 183.169,150.397 183.377 C 150.317 183.585,150.155 183.694,150.035 183.621 C 149.916 183.547,149.818 183.589,149.818 183.715 C 149.818 183.934,148.924 184.323,148.545 184.269 C 148.445 184.254,148.364 184.358,148.364 184.499 C 148.364 184.640,148.271 184.698,148.157 184.628 C 148.043 184.558,147.563 184.698,147.090 184.939 C 146.616 185.181,145.700 185.515,145.054 185.683 C 144.407 185.850,143.715 186.047,143.515 186.121 C 142.384 186.538,138.899 187.088,136.606 187.212 C 136.339 187.226,124.421 187.219,110.121 187.195 L 84.121 187.152 84.121 147.030 L 84.121 106.909 77.394 106.911 C 73.694 106.912,69.930 106.982,69.030 107.067 L 67.394 107.222 67.394 154.955 L 67.394 202.688 103.212 202.588 C 122.912 202.533,139.358 202.432,139.758 202.363 C 140.158 202.294,141.194 202.158,142.061 202.060 C 142.927 201.962,143.775 201.770,143.945 201.634 C 144.115 201.497,144.312 201.444,144.383 201.515 C 144.504 201.636,146.837 201.124,147.636 200.801 C 147.836 200.720,148.109 200.623,148.242 200.585 C 150.698 199.881,151.423 199.626,151.572 199.410 C 151.670 199.268,151.752 199.236,151.754 199.339 C 151.756 199.442,152.030 199.348,152.364 199.129 C 152.697 198.911,152.970 198.801,152.970 198.886 C 152.970 198.971,153.433 198.798,154.000 198.501 C 154.567 198.205,155.112 197.985,155.212 198.012 C 155.312 198.039,155.394 197.945,155.394 197.804 C 155.394 197.663,155.503 197.615,155.636 197.697 C 155.770 197.779,155.879 197.725,155.879 197.576 C 155.879 197.427,155.988 197.372,156.121 197.455 C 156.255 197.537,156.364 197.482,156.364 197.333 C 156.364 197.184,156.473 197.130,156.606 197.212 C 156.739 197.295,156.848 197.246,156.848 197.105 C 156.848 196.964,157.067 196.848,157.333 196.848 C 157.600 196.848,157.818 196.739,157.818 196.606 C 157.818 196.473,157.982 196.364,158.182 196.364 C 158.382 196.364,158.545 196.248,158.545 196.107 C 158.545 195.966,158.634 195.905,158.742 195.972 C 158.851 196.039,159.247 195.829,159.622 195.507 C 159.998 195.184,160.389 194.971,160.492 195.035 C 160.594 195.098,160.999 194.850,161.391 194.484 C 161.784 194.118,162.395 193.663,162.749 193.474 C 163.104 193.285,163.394 193.040,163.394 192.929 C 163.394 192.818,163.532 192.727,163.700 192.727 C 163.868 192.727,164.276 192.400,164.606 192.000 C 164.936 191.600,165.308 191.273,165.432 191.273 C 165.555 191.273,165.829 191.108,166.040 190.906 C 166.251 190.705,166.648 190.350,166.921 190.119 C 167.193 189.887,167.248 189.798,167.042 189.921 C 166.835 190.045,167.260 189.610,167.985 188.954 C 170.043 187.092,170.145 186.992,169.708 187.262 C 169.502 187.389,169.876 186.980,170.540 186.353 C 171.204 185.725,171.668 185.212,171.570 185.212 C 171.409 185.212,171.666 184.891,172.799 183.680 C 173.026 183.437,173.212 183.142,173.212 183.023 C 173.212 182.905,173.382 182.668,173.590 182.495 C 174.070 182.097,175.356 180.110,175.429 179.655 C 175.460 179.465,175.657 179.212,175.869 179.094 C 176.080 178.976,176.189 178.777,176.112 178.652 C 176.035 178.527,176.087 178.424,176.228 178.424 C 176.369 178.424,176.485 178.206,176.485 177.939 C 176.485 177.673,176.600 177.455,176.742 177.455 C 176.883 177.455,176.931 177.345,176.848 177.212 C 176.766 177.079,176.798 176.970,176.919 176.970 C 177.148 176.970,178.121 175.001,177.979 174.823 C 177.935 174.767,177.990 174.654,178.103 174.573 C 178.286 174.440,178.548 173.884,179.806 170.967 C 179.993 170.532,180.080 170.069,179.998 169.937 C 179.917 169.805,179.977 169.697,180.133 169.697 C 180.288 169.697,180.353 169.533,180.276 169.333 C 180.199 169.133,180.242 168.970,180.371 168.970 C 180.500 168.970,180.606 168.765,180.606 168.515 C 180.606 168.265,180.767 167.604,180.965 167.045 C 181.162 166.486,181.372 165.627,181.432 165.136 C 181.492 164.644,181.563 164.242,181.589 164.242 C 181.616 164.242,181.665 164.024,181.698 163.758 C 181.731 163.491,181.834 162.891,181.927 162.424 C 182.283 160.629,182.344 159.475,182.344 154.545 C 182.344 149.615,182.283 148.462,181.927 146.667 C 181.834 146.200,181.731 145.600,181.698 145.333 C 181.665 145.067,181.616 144.848,181.589 144.848 C 181.563 144.848,181.492 144.447,181.432 143.955 C 181.372 143.464,181.162 142.605,180.965 142.046 C 180.767 141.487,180.606 140.825,180.606 140.576 C 180.606 140.326,180.500 140.121,180.371 140.121 C 180.242 140.121,180.199 139.958,180.276 139.758 C 180.353 139.558,180.288 139.394,180.133 139.394 C 179.977 139.394,179.917 139.286,179.998 139.154 C 180.080 139.022,179.993 138.559,179.806 138.124 C 178.548 135.206,178.286 134.651,178.103 134.518 C 177.990 134.437,177.935 134.324,177.979 134.268 C 178.121 134.090,177.148 132.121,176.919 132.121 C 176.798 132.121,176.766 132.012,176.848 131.879 C 176.931 131.745,176.883 131.636,176.742 131.636 C 176.600 131.636,176.485 131.418,176.485 131.152 C 176.485 130.885,176.369 130.667,176.228 130.667 C 176.087 130.667,176.035 130.564,176.112 130.439 C 176.189 130.314,176.080 130.115,175.869 129.997 C 175.657 129.879,175.460 129.626,175.429 129.436 C 175.356 128.980,174.070 126.994,173.590 126.596 C 173.382 126.423,173.212 126.186,173.212 126.067 C 173.212 125.949,173.026 125.654,172.799 125.411 C 171.666 124.200,171.409 123.879,171.570 123.879 C 171.668 123.879,171.204 123.365,170.540 122.738 C 169.876 122.111,169.552 121.748,169.818 121.932 C 170.085 122.116,169.710 121.731,168.985 121.075 C 167.038 119.315,166.860 119.140,167.152 119.273 C 167.297 119.339,167.193 119.204,166.921 118.972 C 166.648 118.740,166.251 118.386,166.040 118.184 C 165.829 117.983,165.555 117.818,165.432 117.818 C 165.308 117.818,164.936 117.491,164.606 117.091 C 164.276 116.691,163.868 116.364,163.700 116.364 C 163.532 116.364,163.394 116.273,163.394 116.162 C 163.394 116.051,163.104 115.806,162.749 115.617 C 162.395 115.428,161.784 114.973,161.391 114.607 C 160.999 114.241,160.594 113.993,160.492 114.056 C 160.389 114.120,159.998 113.907,159.622 113.584 C 159.247 113.261,158.851 113.052,158.742 113.119 C 158.634 113.186,158.545 113.146,158.545 113.029 C 158.545 112.913,158.164 112.668,157.697 112.485 C 157.230 112.302,156.848 112.057,156.848 111.940 C 156.848 111.824,156.739 111.796,156.606 111.879 C 156.473 111.961,156.364 111.907,156.364 111.758 C 156.364 111.609,156.255 111.554,156.121 111.636 C 155.988 111.719,155.879 111.664,155.879 111.515 C 155.879 111.366,155.770 111.312,155.636 111.394 C 155.503 111.476,155.394 111.428,155.394 111.287 C 155.394 111.146,155.312 111.052,155.212 111.079 C 155.112 111.106,154.567 110.886,154.000 110.590 C 153.433 110.293,152.970 110.120,152.970 110.205 C 152.970 110.289,152.697 110.180,152.364 109.962 C 152.030 109.743,151.756 109.649,151.754 109.752 C 151.752 109.855,151.670 109.827,151.572 109.690 C 151.428 109.489,149.327 108.731,148.249 108.492 C 148.112 108.462,147.836 108.371,147.636 108.290 C 146.837 107.967,144.504 107.455,144.383 107.576 C 144.312 107.647,144.115 107.594,143.945 107.457 C 143.675 107.240,142.797 107.097,139.758 106.776 C 138.490 106.642,118.406 106.543,105.758 106.608 " stroke="none" fill="#146c74" fill-rule="evenodd"></path><path id="path3" d="M111.830 106.605 C 113.003 106.649,114.858 106.649,115.951 106.604 C 117.045 106.560,116.085 106.523,113.818 106.523 C 111.552 106.524,110.657 106.560,111.830 106.605 M128.073 106.605 C 129.246 106.649,131.100 106.649,132.194 106.604 C 133.287 106.560,132.327 106.523,130.061 106.523 C 127.794 106.524,126.899 106.560,128.073 106.605 M135.337 106.598 C 135.705 106.654,136.251 106.652,136.549 106.595 C 136.847 106.537,136.545 106.492,135.879 106.494 C 135.212 106.495,134.968 106.542,135.337 106.598 M79.222 106.846 C 80.060 106.894,81.369 106.893,82.131 106.846 C 82.892 106.798,82.206 106.759,80.606 106.759 C 79.006 106.760,78.383 106.799,79.222 106.846 M67.943 107.083 C 68.311 107.139,68.857 107.137,69.155 107.080 C 69.453 107.022,69.152 106.977,68.485 106.978 C 67.818 106.980,67.574 107.027,67.943 107.083 M84.240 147.030 C 84.240 169.164,84.268 178.254,84.303 167.231 C 84.338 156.208,84.338 138.099,84.303 126.989 C 84.268 115.878,84.240 124.897,84.240 147.030 M166.909 119.196 C 167.854 120.147,169.487 121.464,168.848 120.759 C 168.448 120.317,167.794 119.730,167.394 119.454 C 166.994 119.178,166.776 119.062,166.909 119.196 M115.939 124.060 C 119.106 124.099,124.288 124.099,127.455 124.060 C 130.621 124.022,128.030 123.991,121.697 123.991 C 115.364 123.991,112.773 124.022,115.939 124.060 M148.141 126.636 C 148.391 126.859,149.818 127.515,149.818 127.406 C 149.818 127.267,148.474 126.545,148.214 126.545 C 148.119 126.545,148.086 126.586,148.141 126.636 M156.364 132.678 C 156.364 132.724,156.636 132.998,156.970 133.288 C 157.303 133.578,157.576 133.719,157.576 133.602 C 157.576 133.485,157.303 133.210,156.970 132.992 C 156.636 132.774,156.364 132.632,156.364 132.678 M164.452 155.758 C 164.453 157.091,164.494 157.605,164.543 156.901 C 164.592 156.196,164.591 155.106,164.541 154.477 C 164.492 153.848,164.452 154.424,164.452 155.758 M97.621 155.818 C 99.912 155.858,103.730 155.858,106.106 155.818 C 108.481 155.778,106.606 155.746,101.939 155.745 C 97.273 155.745,95.329 155.778,97.621 155.818 M155.636 179.322 C 154.751 180.231,154.695 180.335,155.337 179.870 C 155.973 179.410,157.066 178.150,156.793 178.192 C 156.757 178.198,156.236 178.706,155.636 179.322 M168.000 188.898 C 167.267 189.580,166.994 189.912,167.394 189.636 C 168.084 189.161,169.665 187.624,169.439 187.647 C 169.381 187.653,168.733 188.216,168.000 188.898 M135.337 202.598 C 135.705 202.654,136.251 202.652,136.549 202.595 C 136.847 202.537,136.545 202.492,135.879 202.494 C 135.212 202.495,134.968 202.542,135.337 202.598 " stroke="none" fill="#146474" fill-rule="evenodd"></path><path id="path4" d="" stroke="none" fill="#589884" fill-rule="evenodd"></path></g></svg>